<?xml version="1.0" encoding="utf-8"?>
<!-- Generator: Adobe Illustrator 25.0.0, SVG Export Plug-In . SVG Version: 6.00 Build 0)  -->
<svg version="1.1" id="Ebene_1" xmlns="http://www.w3.org/2000/svg" xmlns:xlink="http://www.w3.org/1999/xlink" x="0px" y="0px"
	 width="121" height="32" viewBox="0 0 121.37 32" enable-background="new 0 0 121.37 32" xml:space="preserve">
<g>
	<g>
		<g>
			<g>
				<path fill-rule="evenodd" clip-rule="evenodd" d="M118.242,23.455V6.925c0-1.132-0.342-2.011-1.027-2.636
					c-0.685-0.626-1.668-0.938-2.949-0.938h-4.065v23.678h4.065C116.917,27.029,118.242,25.838,118.242,23.455 M114.266,29.71
					h-7.193V0.67h7.193c2.323,0,4.088,0.551,5.294,1.653c1.207,1.102,1.81,2.636,1.81,4.602v16.53c0,1.996-0.596,3.537-1.787,4.624
					C118.391,29.166,116.619,29.71,114.266,29.71z M95.457,16.083h-5.182c-1.251,0-2.115,0.313-2.591,0.939
					c-0.477,0.625-0.715,1.504-0.715,2.636v4.467c0,1.132,0.238,2.011,0.715,2.636c0.476,0.626,1.34,0.938,2.591,0.938
					s2.412-0.484,3.485-1.452c1.072-0.968,1.638-1.928,1.697-2.881V16.083z M98.585,29.71h-1.341l-1.161-2.86
					c-0.626,1.073-1.445,1.929-2.457,2.569c-1.013,0.641-2.13,0.961-3.351,0.961c-4.289,0-6.434-2.085-6.434-6.255v-4.467
					c0-4.17,2.145-6.255,6.434-6.255h5.182V6.076c0-1.072-0.342-1.906-1.027-2.502S92.732,2.68,91.392,2.68
					c-2.651,0-3.976,1.132-3.976,3.396v2.636h-3.128V6.255c0-1.996,0.588-3.537,1.765-4.624C87.229,0.543,89.009,0,91.392,0
					c2.382,0,4.177,0.543,5.383,1.631c1.206,1.087,1.81,2.628,1.81,4.624V29.71z M64.854,6.255v7.148h8.488V6.255
					c0-2.383-1.415-3.575-4.244-3.575C66.268,2.68,64.854,3.872,64.854,6.255z M73.342,24.125v-2.457h3.128v2.457
					c0,1.996-0.611,3.537-1.832,4.624s-3.053,1.631-5.495,1.631c-2.443,0-4.289-0.544-5.54-1.631s-1.877-2.628-1.877-4.624V6.255
					c0-1.996,0.611-3.537,1.832-4.624C64.779,0.543,66.611,0,69.053,0c2.443,0,4.289,0.543,5.54,1.631
					c1.251,1.087,1.877,2.628,1.877,4.624v9.828H64.854v8.042c0,2.383,1.414,3.574,4.244,3.574
					C71.927,27.699,73.342,26.508,73.342,24.125z M51.004,24.125V6.255c0-2.383-1.489-3.575-4.468-3.575
					c-2.978,0-4.467,1.192-4.467,3.575v17.87c0,2.383,1.489,3.574,4.467,3.574C49.515,27.699,51.004,26.508,51.004,24.125z
					 M54.131,6.255v17.87c0,1.996-0.633,3.537-1.899,4.624c-1.265,1.087-3.157,1.631-5.673,1.631c-2.517,0-4.416-0.544-5.697-1.631
					c-1.28-1.087-1.921-2.628-1.921-4.624V6.255c0-1.996,0.633-3.537,1.899-4.624C42.106,0.543,43.997,0,46.514,0
					s4.415,0.543,5.696,1.631C53.491,2.718,54.131,4.259,54.131,6.255z"/>
			</g>
			<g>
				<path fill-rule="evenodd" clip-rule="evenodd" fill="#E41517" d="M30.343,23.965H18.151l-0.82-2.192H0v-5.805h16.205l0.82,2.192
					h13.318L30.343,23.965 M30.343,13.241H14.138l-0.82-2.192H0V5.244h12.192l0.82,2.192h17.331
					C30.343,7.436,30.343,13.241,30.343,13.241z"/>
			</g>
		</g>
	</g>
</g>
</svg>
